<?xml version="1.0" standalone="no"?>
<!DOCTYPE svg PUBLIC "-//W3C//DTD SVG 20010904//EN"
 "http://www.w3.org/TR/2001/REC-SVG-20010904/DTD/svg10.dtd">
<svg version="1.0" xmlns="http://www.w3.org/2000/svg"
 width="500.000000pt" height="500.000000pt" viewBox="0 0 500.000000 500.000000"
 preserveAspectRatio="xMidYMid meet">

<g transform="translate(0.000000,500.000000) scale(0.100000,-0.100000)"
fill="#000000" stroke="none">
<path d="M1935 2503 c-20 -42 -33 -78 -31 -81 3 -2 10 7 17 20 8 19 16 24 36
20 14 -3 28 -13 30 -23 4 -12 14 -19 30 -19 21 0 23 3 19 33 -3 17 -8 53 -11
80 -6 42 -9 47 -31 47 -21 0 -30 -11 -59 -77z m45 7 c0 -33 -3 -40 -20 -40
-24 0 -25 11 -5 50 21 40 25 38 25 -10z"/>
<path d="M2081 2530 c-15 -71 -14 -88 8 -100 55 -29 95 2 115 88 8 34 11 62 7
62 -5 0 -14 -30 -22 -67 -13 -64 -16 -68 -43 -71 l-29 -4 7 55 c3 31 9 62 12
71 5 12 0 16 -19 16 -22 0 -27 -6 -36 -50z"/>
<path d="M2254 2573 c19 -5 19 -27 0 -120 -6 -29 -4 -33 14 -33 22 0 24 4 43
92 9 45 16 58 33 61 12 2 -8 4 -44 4 -36 1 -57 -1 -46 -4z"/>
<path d="M2413 2570 c-29 -12 -43 -40 -43 -89 0 -44 18 -61 64 -61 63 0 110
96 67 139 -22 22 -51 26 -88 11z m57 -35 c0 -46 -26 -108 -42 -102 -8 2 -13
19 -12 40 3 79 54 138 54 62z"/>
<path d="M2600 2553 c0 -16 3 -52 6 -80 6 -47 9 -53 31 -53 19 0 28 10 46 48
l22 47 3 -48 c3 -45 5 -48 29 -45 21 3 30 14 55 77 32 81 31 112 -2 37 -11
-26 -20 -52 -20 -57 0 -6 -4 -7 -10 -4 -5 3 -10 29 -10 56 0 46 -2 50 -22 47
-17 -2 -28 -16 -42 -57 -16 -43 -21 -50 -27 -35 -4 10 -8 36 -8 57 -1 33 -4
37 -26 37 -21 0 -25 -5 -25 -27z"/>
<path d="M2841 2518 c-7 -35 -14 -71 -17 -80 -5 -16 2 -18 48 -17 29 1 44 3
33 6 -30 7 -37 18 -29 47 4 19 13 26 33 27 24 2 24 2 3 6 -18 4 -23 10 -20 31
2 21 10 28 33 33 24 5 20 7 -21 8 l-51 1 -12 -62z"/>
<path d="M2971 2543 c-6 -21 -13 -58 -17 -82 l-7 -44 53 6 c28 4 58 12 66 18
17 14 19 59 2 59 -6 0 -4 7 5 18 10 10 17 24 17 30 0 17 -34 32 -74 32 -32 0
-36 -3 -45 -37z m77 -1 c2 -13 -3 -25 -13 -28 -22 -9 -27 -1 -19 30 7 31 28
29 32 -2z m-10 -66 c4 -20 -15 -46 -33 -46 -12 0 -12 17 1 58 5 18 28 10 32
-12z"/>
</g>
</svg>
